<?xml version="1.0" encoding="UTF-8" standalone="no"?>
<!-- Created with Inkscape (http://www.inkscape.org/) -->

<svg
   xmlns:ns1="http://www.iki.fi/pav/software/textext/"
   xmlns:dc="http://purl.org/dc/elements/1.1/"
   xmlns:cc="http://creativecommons.org/ns#"
   xmlns:rdf="http://www.w3.org/1999/02/22-rdf-syntax-ns#"
   xmlns:svg="http://www.w3.org/2000/svg"
   xmlns="http://www.w3.org/2000/svg"
   xmlns:sodipodi="http://sodipodi.sourceforge.net/DTD/sodipodi-0.dtd"
   xmlns:inkscape="http://www.inkscape.org/namespaces/inkscape"
   width="13.631797mm"
   height="14.317055mm"
   viewBox="0 0 13.631797 14.317055"
   version="1.1"
   id="svg8"
   inkscape:version="0.92.4 (5da689c313, 2019-01-14)"
   sodipodi:docname="threshold_b.svg">
  <sodipodi:namedview
     id="base"
     pagecolor="#ffffff"
     bordercolor="#666666"
     borderopacity="1.0"
     inkscape:pageopacity="0.0"
     inkscape:pageshadow="2"
     inkscape:zoom="3.959798"
     inkscape:cx="-68.99595"
     inkscape:cy="31.062964"
     inkscape:document-units="mm"
     inkscape:current-layer="g1485"
     showgrid="false"
     inkscape:window-width="1920"
     inkscape:window-height="1016"
     inkscape:window-x="1920"
     inkscape:window-y="27"
     inkscape:window-maximized="1"
     fit-margin-top="0"
     fit-margin-left="0"
     fit-margin-right="0"
     fit-margin-bottom="0" />
  <defs
     id="defs2">
    <inkscape:path-effect
       end_linecap_type="zerowidth"
       miter_limit="4"
       linejoin_type="extrp_arc"
       start_linecap_type="zerowidth"
       interpolator_beta="0.2"
       interpolator_type="CubicBezierJohan"
       sort_points="true"
       offset_points="0,0.13229166"
       is_visible="true"
       id="path-effect835"
       effect="powerstroke" />
    <inkscape:path-effect
       end_linecap_type="zerowidth"
       miter_limit="4"
       linejoin_type="extrp_arc"
       start_linecap_type="zerowidth"
       interpolator_beta="0.2"
       interpolator_type="CubicBezierJohan"
       sort_points="true"
       offset_points="0,2.282271"
       is_visible="true"
       id="path-effect823"
       effect="powerstroke" />
    <inkscape:path-effect
       end_linecap_type="zerowidth"
       miter_limit="4"
       linejoin_type="extrp_arc"
       start_linecap_type="zerowidth"
       interpolator_beta="0.2"
       interpolator_type="CubicBezierJohan"
       sort_points="true"
       offset_points=""
       is_visible="true"
       id="path-effect819"
       effect="powerstroke" />
  </defs>
  <metadata
     id="metadata5">
    <rdf:RDF>
      <cc:Work
         rdf:about="">
        <dc:format>image/svg+xml</dc:format>
        <dc:type
           rdf:resource="http://purl.org/dc/dcmitype/StillImage" />
        <dc:title></dc:title>
      </cc:Work>
    </rdf:RDF>
  </metadata>
  <g
     id="layer1"
     inkscape:groupmode="layer"
     inkscape:label="Layer 1"
     transform="translate(-70.831907,-102.0387)">
    <ellipse
       style="fill:none;fill-opacity:1;stroke:#000000;stroke-width:0.2;stroke-miterlimit:4;stroke-dasharray:none;stroke-opacity:1"
       id="path1127"
       cx="74.47139"
       cy="104.66722"
       rx="0.60135639"
       ry="0.56794775" />
    <ellipse
       style="fill:none;fill-opacity:1;stroke:#000000;stroke-width:0.2;stroke-miterlimit:4;stroke-dasharray:none;stroke-opacity:1"
       id="path1127-1"
       cx="80.685402"
       cy="104.70063"
       rx="0.60135639"
       ry="0.56794775" />
    <ellipse
       style="fill:none;fill-opacity:1;stroke:#000000;stroke-width:0.2;stroke-miterlimit:4;stroke-dasharray:none;stroke-opacity:1"
       id="path1127-16"
       cx="74.131935"
       cy="114.19408"
       rx="0.60135639"
       ry="0.56794775" />
    <ellipse
       style="fill:none;fill-opacity:1;stroke:#000000;stroke-width:0.2;stroke-miterlimit:4;stroke-dasharray:none;stroke-opacity:1"
       id="path1127-7"
       cx="80.412758"
       cy="114.06042"
       rx="0.60135639"
       ry="0.56794775" />
    <path
       style="fill:none;stroke:#000000;stroke-width:0.26458332px;stroke-linecap:butt;stroke-linejoin:miter;stroke-opacity:1"
       d="m 74.471391,105.36881 -0.200452,8.21853"
       id="path1156"
       inkscape:connector-curvature="0"
       sodipodi:nodetypes="cc" />
    <path
       style="fill:none;stroke:#000000;stroke-width:0.26458332px;stroke-linecap:butt;stroke-linejoin:miter;stroke-opacity:1"
       d="m 80.718816,105.13495 -0.200452,8.21853"
       id="path1156-2"
       inkscape:connector-curvature="0"
       sodipodi:nodetypes="cc" />
    <path
       style="fill:none;stroke:#000000;stroke-width:0.26458332px;stroke-linecap:butt;stroke-linejoin:miter;stroke-opacity:1"
       d="m 75.000557,104.83964 5.189092,-0.23386"
       id="path1173"
       inkscape:connector-curvature="0"
       sodipodi:nodetypes="cc" />
    <path
       style="fill:none;stroke:#000000;stroke-width:0.26458332px;stroke-linecap:butt;stroke-linejoin:miter;stroke-opacity:1"
       d="m 74.800106,114.11651 5.18909,-0.23386"
       id="path1175"
       inkscape:connector-curvature="0"
       sodipodi:nodetypes="cc" />
    <g
       transform="matrix(0.42848053,0,0,0.37038497,8.0338538,54.601216)"
       ns1:version="0.10.1"
       ns1:texconverter="pdflatex"
       ns1:pdfconverter="pdf2svg"
       ns1:text="$1$"
       ns1:preamble="C:\\Users\\H\\AppData\\Roaming\\inkscape\\extensions\\textext\\default_packages.tex"
       ns1:scale="2.97514068167"
       ns1:alignment="middle center"
       inkscapeversion="0.92.3"
       ns1:jacobian_sqrt="1.049564"
       id="g1485">
      <g
         id="surface1"
         transform="matrix(1,0,0,0.80983737,0,25.627267)">
        <g
           style="fill:#000000;fill-opacity:1"
           id="g1482">
          <path
             inkscape:connector-curvature="0"
             style="stroke:none;stroke-width:0"
             d="m 2.9375,-6.375 c 0,-0.25 0,-0.265625 -0.234375,-0.265625 C 2.078125,-6 1.203125,-6 0.890625,-6 v 0.3125 c 0.203125,0 0.78125,0 1.296875,-0.265625 v 5.171875 c 0,0.359375 -0.03125,0.46875 -0.921875,0.46875 h -0.3125 V 0 c 0.34375,-0.03125 1.203125,-0.03125 1.609375,-0.03125 0.390625,0 1.265625,0 1.609375,0.03125 v -0.3125 h -0.3125 c -0.90625,0 -0.921875,-0.109375 -0.921875,-0.46875 z m 0,0"
             transform="translate(148.712,134.765)"
             id="path1480" />
        </g>
      </g>
      <g
         id="g1560"
         ns1:jacobian_sqrt="1.049564"
         inkscapeversion="0.92.3"
         ns1:alignment="middle center"
         ns1:scale="2.97514068167"
         ns1:preamble="C:\\Users\\H\\AppData\\Roaming\\inkscape\\extensions\\textext\\default_packages.tex"
         ns1:text="$2$"
         ns1:pdfconverter="pdf2svg"
         ns1:texconverter="pdflatex"
         ns1:version="0.10.1"
         transform="matrix(0.65664356,0,0,0.75073698,74.232029,33.858347)">
        <g
           id="g1558">
          <g
             id="g1556"
             style="fill:#000000;fill-opacity:1">
            <path
               id="path1554"
               transform="translate(148.712,134.765)"
               d="m 1.265625,-0.765625 1.0625,-1.03125 c 1.546875,-1.375 2.140625,-1.90625 2.140625,-2.90625 0,-1.140625 -0.890625,-1.9375 -2.109375,-1.9375 -1.125,0 -1.859375,0.921875 -1.859375,1.8125 0,0.546875 0.5,0.546875 0.53125,0.546875 0.171875,0 0.515625,-0.109375 0.515625,-0.53125 0,-0.25 -0.1875,-0.515625 -0.53125,-0.515625 -0.078125,0 -0.09375,0 -0.125,0.015625 0.21875,-0.65625 0.765625,-1.015625 1.34375,-1.015625 0.90625,0 1.328125,0.8125 1.328125,1.625 C 3.5625,-3.90625 3.078125,-3.125 2.515625,-2.5 l -1.90625,2.125 C 0.5,-0.265625 0.5,-0.234375 0.5,0 H 4.203125 L 4.46875,-1.734375 H 4.234375 C 4.171875,-1.4375 4.109375,-1 4,-0.84375 3.9375,-0.765625 3.28125,-0.765625 3.0625,-0.765625 Z m 0,0"
               style="stroke:none;stroke-width:0"
               inkscape:connector-curvature="0" />
          </g>
        </g>
      </g>
      <g
         transform="matrix(0.78593663,0,0,0.73396705,32.000471,60.982268)"
         ns1:version="0.10.1"
         ns1:texconverter="pdflatex"
         ns1:pdfconverter="pdf2svg"
         ns1:text="$3$"
         ns1:preamble="C:\\Users\\H\\AppData\\Roaming\\inkscape\\extensions\\textext\\default_packages.tex"
         ns1:scale="2.97514068167"
         ns1:alignment="middle center"
         inkscapeversion="0.92.3"
         ns1:jacobian_sqrt="1.049564"
         id="g1644">
        <g
           id="g1642">
          <g
             style="fill:#000000;fill-opacity:1"
             id="g1640">
            <path
               style="stroke:none;stroke-width:0"
               d="m 2.890625,-3.515625 c 0.8125,-0.265625 1.390625,-0.953125 1.390625,-1.75 0,-0.8125 -0.875,-1.375 -1.828125,-1.375 -1,0 -1.765625,0.59375 -1.765625,1.359375 0,0.328125 0.21875,0.515625 0.515625,0.515625 0.296875,0 0.5,-0.21875 0.5,-0.515625 0,-0.484375 -0.46875,-0.484375 -0.609375,-0.484375 0.296875,-0.5 0.953125,-0.625 1.3125,-0.625 0.421875,0 0.96875,0.21875 0.96875,1.109375 0,0.125 -0.03125,0.703125 -0.28125,1.140625 C 2.796875,-3.65625 2.453125,-3.625 2.203125,-3.625 2.125,-3.609375 1.890625,-3.59375 1.8125,-3.59375 c -0.078125,0.015625 -0.140625,0.03125 -0.140625,0.125 0,0.109375 0.0625,0.109375 0.234375,0.109375 h 0.4375 c 0.8125,0 1.1875,0.671875 1.1875,1.65625 0,1.359375 -0.6875,1.640625 -1.125,1.640625 -0.4375,0 -1.1875,-0.171875 -1.53125,-0.75 0.34375,0.046875 0.65625,-0.171875 0.65625,-0.546875 0,-0.359375 -0.265625,-0.5625 -0.546875,-0.5625 -0.25,0 -0.5625,0.140625 -0.5625,0.578125 0,0.90625 0.921875,1.5625 2.015625,1.5625 1.21875,0 2.125,-0.90625 2.125,-1.921875 0,-0.8125 -0.640625,-1.59375 -1.671875,-1.8125 z m 0,0"
               transform="translate(148.712,134.765)"
               id="path1638"
               inkscape:connector-curvature="0" />
          </g>
        </g>
      </g>
      <g
         id="g1736"
         ns1:jacobian_sqrt="1.049564"
         inkscapeversion="0.92.3"
         ns1:alignment="middle center"
         ns1:scale="2.97514068167"
         ns1:preamble="C:\\Users\\H\\AppData\\Roaming\\inkscape\\extensions\\textext\\default_packages.tex"
         ns1:text="$4$"
         ns1:pdfconverter="pdf2svg"
         ns1:texconverter="pdflatex"
         ns1:version="0.10.1"
         transform="matrix(0.83721976,0,0,0.75557911,45.48347,57.03536)">
        <g
           id="g1734">
          <g
             id="g1732"
             style="fill:#000000;fill-opacity:1">
            <path
               id="path1730"
               transform="translate(148.712,134.765)"
               d="m 2.9375,-1.640625 v 0.859375 c 0,0.359375 -0.03125,0.46875 -0.765625,0.46875 H 1.96875 V 0 C 2.375,-0.03125 2.890625,-0.03125 3.3125,-0.03125 c 0.421875,0 0.9375,0 1.359375,0.03125 v -0.3125 h -0.21875 c -0.734375,0 -0.75,-0.109375 -0.75,-0.46875 V -1.640625 H 4.6875 v -0.3125 H 3.703125 v -4.53125 c 0,-0.203125 0,-0.265625 -0.171875,-0.265625 -0.078125,0 -0.109375,0 -0.1875,0.125 l -3.0625,4.671875 v 0.3125 z m 0.046875,-0.3125 H 0.5625 l 2.421875,-3.71875 z m 0,0"
               style="stroke:none;stroke-width:0"
               inkscape:connector-curvature="0" />
          </g>
        </g>
      </g>
      <g
         transform="matrix(1.0951356,0,0,0.7779031,-3.328032,28.407813)"
         ns1:version="0.10.1"
         ns1:texconverter="pdflatex"
         ns1:pdfconverter="pdf2svg"
         ns1:text="$\\mathit{1}$"
         ns1:preamble="C:\\Users\\H\\AppData\\Roaming\\inkscape\\extensions\\textext\\default_packages.tex"
         ns1:scale="2.97514068167"
         ns1:alignment="middle center"
         inkscapeversion="0.92.3"
         ns1:jacobian_sqrt="1.049564"
         id="g4228">
        <g
           id="g4226">
          <g
             style="fill:#000000;fill-opacity:1"
             id="g4224">
            <path
               style="stroke:none;stroke-width:0"
               d="m 4.5625,-6.390625 c 0.015625,-0.03125 0.03125,-0.109375 0.03125,-0.125 0,-0.078125 -0.0625,-0.125 -0.125,-0.125 -0.046875,0 -0.0625,0.015625 -0.1875,0.15625 -0.765625,1.03125 -1.453125,1.09375 -1.75,1.125 C 2.484375,-5.34375 2.375,-5.328125 2.375,-5.15625 c 0,0.109375 0.125,0.109375 0.15625,0.109375 0.15625,0 0.640625,-0.0625 1.109375,-0.40625 L 2.46875,-0.734375 C 2.375,-0.40625 2.296875,-0.3125 1.53125,-0.3125 H 1.453125 c -0.171875,0 -0.28125,0 -0.28125,0.1875 C 1.171875,0 1.28125,0 1.3125,0 1.75,0 2.1875,-0.03125 2.625,-0.03125 3.0625,-0.03125 3.515625,0 3.953125,0 4.03125,0 4.15625,0 4.15625,-0.1875 c 0,-0.125 -0.09375,-0.125 -0.265625,-0.125 H 3.8125 c -0.125,0 -0.296875,0 -0.421875,-0.015625 -0.21875,-0.03125 -0.28125,-0.046875 -0.28125,-0.1875 0,-0.046875 0.015625,-0.140625 0.03125,-0.1875 z m 0,0"
               transform="translate(148.712,134.765)"
               id="path4222"
               inkscape:connector-curvature="0" />
          </g>
        </g>
      </g>
      <g
         id="g4544"
         ns1:jacobian_sqrt="1.049564"
         inkscapeversion="0.92.3"
         ns1:alignment="middle center"
         ns1:scale="2.97514068167"
         ns1:preamble="C:\\Users\\H\\AppData\\Roaming\\inkscape\\extensions\\textext\\default_packages.tex"
         ns1:text="$\\mathit{2}$"
         ns1:pdfconverter="pdf2svg"
         ns1:texconverter="pdflatex"
         ns1:version="0.10.1"
         transform="matrix(0.58069653,0,0,0.7076673,74.256495,71.207099)">
        <g
           id="g4542">
          <g
             id="g4540"
             style="fill:#000000;fill-opacity:1">
            <path
               id="path4538"
               transform="translate(148.712,134.765)"
               d="M 1.515625,-0.734375 C 2.015625,-1.59375 2.734375,-2 3.046875,-2.1875 4.578125,-3.046875 5.5,-3.671875 5.5,-4.953125 c 0,-1.140625 -0.78125,-1.6875 -1.5625,-1.6875 -1.46875,0 -2.296875,2.015625 -2.296875,2.65625 0,0.203125 0.0625,0.640625 0.515625,0.640625 0.78125,0 1.203125,-1.203125 1.203125,-1.578125 0,-0.1875 -0.09375,-0.53125 -0.21875,-0.53125 -0.0625,0 -0.109375,0.046875 -0.109375,0.109375 0,0.015625 0,0.046875 0.015625,0.0625 0.046875,0.125 0.09375,0.25 0.09375,0.359375 0,0.296875 -0.375,1.359375 -0.984375,1.359375 -0.109375,0 -0.21875,-0.0625 -0.21875,-0.328125 0,-0.65625 0.75,-2.53125 1.96875,-2.53125 0.40625,0 0.875,0.265625 0.875,1.09375 0,1.453125 -0.859375,2.28125 -1.84375,2.875 C 2.484375,-2.1875 2.0625,-1.9375 1.640625,-1.421875 0.953125,-0.59375 0.84375,0.109375 0.84375,0.125 c 0,0.09375 0.09375,0.09375 0.140625,0.09375 0.125,0 0.140625,-0.015625 0.171875,-0.125 0.078125,-0.28125 0.265625,-0.640625 0.5625,-0.640625 0.3125,0 0.59375,0.203125 0.84375,0.375 C 2.828125,0 3.125,0.21875 3.53125,0.21875 c 1.140625,0 1.609375,-1.734375 1.609375,-1.84375 0,-0.09375 -0.09375,-0.09375 -0.15625,-0.09375 -0.125,0 -0.125,0 -0.171875,0.15625 -0.140625,0.421875 -0.53125,1.078125 -1.1875,1.078125 -0.28125,0 -0.671875,-0.078125 -0.828125,-0.109375 -0.359375,-0.078125 -0.75,-0.171875 -1.0625,-0.171875 -0.109375,0 -0.203125,0.015625 -0.21875,0.03125 z m 0,0"
               style="stroke:none;stroke-width:0"
               inkscape:connector-curvature="0" />
          </g>
        </g>
      </g>
      <g
         transform="matrix(0.54837917,0,0,0.58689926,64.366681,69.181678)"
         ns1:version="0.10.1"
         ns1:texconverter="pdflatex"
         ns1:pdfconverter="pdf2svg"
         ns1:text="$\\mathit{0.4}$"
         ns1:preamble="C:\\Users\\H\\AppData\\Roaming\\inkscape\\extensions\\textext\\default_packages.tex"
         ns1:scale="2.97514068167"
         ns1:alignment="middle center"
         inkscapeversion="0.92.3"
         ns1:jacobian_sqrt="1.049564"
         id="g4876">
        <g
           id="g4874">
          <g
             style="fill:#000000;fill-opacity:1"
             id="g4864">
            <path
               style="stroke:none;stroke-width:0"
               d="m 5.53125,-4.9375 c 0,-0.40625 -0.046875,-1.703125 -1.328125,-1.703125 -0.71875,0 -1.515625,0.46875 -2.125,1.609375 -0.484375,0.921875 -0.90625,2.671875 -0.90625,3.5625 0,0.296875 0,1.6875 1.328125,1.6875 0.65625,0 1.59375,-0.40625 2.25,-1.859375 0.40625,-0.921875 0.78125,-2.5 0.78125,-3.296875 z M 2.546875,0 c -0.3125,0 -0.75,-0.203125 -0.75,-0.984375 0,-0.8125 0.75,-3.75 1.109375,-4.46875 0.359375,-0.75 0.90625,-0.96875 1.234375,-0.96875 0.421875,0 0.78125,0.296875 0.78125,0.9375 0,0.734375 -0.703125,3.5625 -1.140625,4.5 C 3.5625,-0.515625 3.078125,0 2.546875,0 Z m 0,0"
               transform="translate(148.712,134.765)"
               id="path4862"
               inkscape:connector-curvature="0" />
          </g>
          <g
             style="fill:#000000;fill-opacity:1"
             id="g4868">
            <path
               style="stroke:none;stroke-width:0"
               d="m 1.90625,-0.53125 c 0,-0.28125 -0.234375,-0.53125 -0.515625,-0.53125 -0.296875,0 -0.53125,0.25 -0.53125,0.53125 C 0.859375,-0.234375 1.09375,0 1.390625,0 1.671875,0 1.90625,-0.234375 1.90625,-0.53125 Z m 0,0"
               transform="translate(155.155,134.765)"
               id="path4866"
               inkscape:connector-curvature="0" />
          </g>
          <g
             style="fill:#000000;fill-opacity:1"
             id="g4872">
            <path
               style="stroke:none;stroke-width:0"
               d="M 4.109375,-1.9375 C 4.15625,-2.09375 4.15625,-2.109375 4.15625,-2.140625 c 0,-0.265625 -0.234375,-0.265625 -0.265625,-0.265625 -0.296875,0 -0.359375,0.25 -0.40625,0.421875 -0.03125,0.09375 -0.40625,1.59375 -0.40625,1.65625 C 2.34375,-0.59375 2.75,-0.453125 2.46875,-0.5625 2.09375,-0.671875 1.921875,-0.671875 1.703125,-0.671875 c -0.125,0 -0.140625,0 -0.265625,0.015625 2.6875,-2.5 3.265625,-5.71875 3.265625,-5.71875 0,-0.21875 -0.171875,-0.265625 -0.265625,-0.265625 -0.296875,0 -0.34375,0.234375 -0.421875,0.5 -0.328125,1.25 -0.765625,2.4375 -1.46875,3.59375 C 1.75,-1.265625 0.875,-0.5625 0.828125,-0.53125 0.75,-0.515625 0.4375,-0.34375 0.4375,-0.171875 c 0,0.03125 0.078125,0.15625 0.15625,0.15625 0.046875,0 0.203125,-0.109375 0.3125,-0.1875 0.09375,-0.09375 0.1875,-0.15625 0.765625,-0.15625 0.1875,0 0.375,0 0.734375,0.109375 0.125,0.046875 0.359375,0.15625 0.578125,0.234375 L 2.625,1.46875 C 2.578125,1.609375 2.578125,1.640625 2.578125,1.671875 2.578125,1.890625 2.75,1.9375 2.84375,1.9375 c 0.203125,0 0.328125,-0.109375 0.390625,-0.34375 L 3.59375,0.140625 c 0.0625,0.015625 0.140625,0.015625 0.203125,0.015625 0.28125,0 0.921875,-0.140625 0.921875,-0.296875 0,-0.046875 -0.046875,-0.171875 -0.140625,-0.171875 -0.015625,0 -0.046875,0 -0.140625,0.046875 C 4.25,-0.203125 4,-0.15625 3.84375,-0.15625 c -0.078125,0 -0.109375,0 -0.171875,-0.015625 z m 0,0"
               transform="translate(157.922,134.765)"
               id="path4870"
               inkscape:connector-curvature="0" />
          </g>
        </g>
      </g>
      <g
         id="g5224"
         ns1:jacobian_sqrt="1.049564"
         inkscapeversion="0.92.3"
         ns1:alignment="middle center"
         ns1:scale="2.97514068167"
         ns1:preamble="C:\\Users\\H\\AppData\\Roaming\\inkscape\\extensions\\textext\\default_packages.tex"
         ns1:text="$\\mathit{0.5}$"
         ns1:pdfconverter="pdf2svg"
         ns1:texconverter="pdflatex"
         ns1:version="0.10.1"
         transform="matrix(0.55991531,0,0,0.7076673,86.784183,51.18272)">
        <g
           id="g5222">
          <g
             id="g5212"
             style="fill:#000000;fill-opacity:1">
            <path
               id="path5210"
               transform="translate(148.712,134.765)"
               d="m 5.53125,-4.9375 c 0,-0.40625 -0.046875,-1.703125 -1.328125,-1.703125 -0.71875,0 -1.515625,0.46875 -2.125,1.609375 -0.484375,0.921875 -0.90625,2.671875 -0.90625,3.5625 0,0.296875 0,1.6875 1.328125,1.6875 0.65625,0 1.59375,-0.40625 2.25,-1.859375 0.40625,-0.921875 0.78125,-2.5 0.78125,-3.296875 z M 2.546875,0 c -0.3125,0 -0.75,-0.203125 -0.75,-0.984375 0,-0.8125 0.75,-3.75 1.109375,-4.46875 0.359375,-0.75 0.90625,-0.96875 1.234375,-0.96875 0.421875,0 0.78125,0.296875 0.78125,0.9375 0,0.734375 -0.703125,3.5625 -1.140625,4.5 C 3.5625,-0.515625 3.078125,0 2.546875,0 Z m 0,0"
               style="stroke:none;stroke-width:0"
               inkscape:connector-curvature="0" />
          </g>
          <g
             id="g5216"
             style="fill:#000000;fill-opacity:1">
            <path
               id="path5214"
               transform="translate(155.155,134.765)"
               d="m 1.90625,-0.53125 c 0,-0.28125 -0.234375,-0.53125 -0.515625,-0.53125 -0.296875,0 -0.53125,0.25 -0.53125,0.53125 C 0.859375,-0.234375 1.09375,0 1.390625,0 1.671875,0 1.90625,-0.234375 1.90625,-0.53125 Z m 0,0"
               style="stroke:none;stroke-width:0"
               inkscape:connector-curvature="0" />
          </g>
          <g
             id="g5220"
             style="fill:#000000;fill-opacity:1">
            <path
               id="path5218"
               transform="translate(157.922,134.765)"
               d="m 2.875,-5.5625 c 0.03125,-0.109375 0.046875,-0.125 0.0625,-0.125 0,0 0.015625,0 0.125,0.03125 0.1875,0.078125 0.421875,0.09375 0.609375,0.09375 1.109375,0 1.984375,-0.828125 1.984375,-0.984375 0,-0.0625 -0.0625,-0.078125 -0.09375,-0.078125 -0.03125,0 -0.0625,0 -0.125,0.03125 C 5,-6.40625 4.546875,-6.3125 4.15625,-6.3125 3.71875,-6.3125 3.328125,-6.421875 3.046875,-6.578125 2.984375,-6.609375 2.9375,-6.625 2.90625,-6.625 c -0.078125,0 -0.09375,0.0625 -0.125,0.171875 l -0.75,3.03125 C 2.015625,-3.40625 2,-3.3125 2,-3.296875 c 0,0.09375 0.078125,0.109375 0.140625,0.109375 0.0625,0 0.078125,-0.015625 0.15625,-0.09375 0.5,-0.59375 1.046875,-0.6875 1.34375,-0.6875 0.40625,0 0.609375,0.34375 0.609375,0.890625 0,0.546875 -0.296875,1.59375 -0.5,1.984375 C 3.3125,-0.28125 2.71875,-0.0625 2.359375,-0.0625 2,-0.0625 1.390625,-0.265625 1.375,-1.21875 c 0.03125,0 0.046875,0 0.09375,0 C 1.8125,-1.21875 2,-1.5 2,-1.734375 2,-1.9375 1.875,-2.078125 1.640625,-2.078125 c -0.515625,0 -0.578125,0.59375 -0.578125,0.90625 0,0.734375 0.4375,1.390625 1.296875,1.390625 1.265625,0 2.609375,-1.34375 2.609375,-2.859375 0,-0.78125 -0.4375,-1.546875 -1.3125,-1.546875 -0.453125,0 -0.859375,0.171875 -1.234375,0.453125 z m 0,0"
               style="stroke:none;stroke-width:0"
               inkscape:connector-curvature="0" />
          </g>
        </g>
      </g>
    </g>
  </g>
</svg>
